<svg id="Layer_1" data-name="Layer 1" xmlns="http://www.w3.org/2000/svg" viewBox="0 0 117 91"><defs><style>.cls-1{fill:#fff;}</style></defs><title>BCI Central-Full white</title><path class="cls-1" d="M31.48,27.47a11.93,11.93,0,0,0,3.27-3.7,13.81,13.81,0,0,0,1.4-3.24A17.29,17.29,0,0,0,36.63,16a13.06,13.06,0,0,0-1.4-5.8c-2.57-5.26-8.16-7.92-16.6-7.92H2.74V58.79H20.58c5.81,0,10.54-1.35,14.05-4a15.22,15.22,0,0,0,4.42-5.35,15,15,0,0,0,1.64-6.82,17.09,17.09,0,0,0-3-10.28,14.4,14.4,0,0,0-6.19-4.86m-9.28,24H10.32V32.19H23.09a10.13,10.13,0,0,1,7,2.61,9.66,9.66,0,0,1,2.22,2.9,8.44,8.44,0,0,1,.83,3.83,9.28,9.28,0,0,1-3.06,7.25,11.23,11.23,0,0,1-7.85,2.73m4.52-28.8a10,10,0,0,1-6.47,2H10.32V9.53h8.31c10.42,0,10.42,5.51,10.42,7.33,0,2.67-.76,4.58-2.33,5.85"/><path class="cls-1" d="M91.05,40.68a21.46,21.46,0,0,1-7.67,8.16,20.57,20.57,0,0,1-25.7-3.31,20.75,20.75,0,0,1-6-14.93,20.85,20.85,0,0,1,6-15,21.66,21.66,0,0,1,6.66-4.66,17.77,17.77,0,0,1,7.4-1.73,23.23,23.23,0,0,1,6.43.81A20.82,20.82,0,0,1,91,20.29l.27.49h8.21l-.52-1.3a28.28,28.28,0,0,0-10.41-13,27.7,27.7,0,0,0-16-4.95A27.26,27.26,0,0,0,52.3,10.17,29.37,29.37,0,0,0,44.07,30.6,28.34,28.34,0,0,0,52.3,51a27.28,27.28,0,0,0,20.25,8.64,27.88,27.88,0,0,0,16-5h0A28.11,28.11,0,0,0,99,41.47l.5-1.29H91.31Z"/><rect class="cls-1" x="105.71" y="2.25" width="7.58" height="56.55"/><path class="cls-1" d="M13.85,86.68a7.38,7.38,0,0,1-4,1.17,7.18,7.18,0,0,1-5.11-2,6.31,6.31,0,0,1-2.07-4.73,6.21,6.21,0,0,1,.55-2.59A6.74,6.74,0,0,1,4.7,76.39a7.14,7.14,0,0,1,5.11-2,7.33,7.33,0,0,1,4,1.15,6.64,6.64,0,0,1,2.63,3H14.83A5.59,5.59,0,0,0,11.34,76a6.94,6.94,0,0,0-1.74-.2,5.27,5.27,0,0,0-2,.43,6,6,0,0,0-1.81,1.17,5.1,5.1,0,0,0,0,7.49,5.69,5.69,0,0,0,4.06,1.6,5.75,5.75,0,0,0,2.95-.77,5.54,5.54,0,0,0,2.09-2h1.63a6.63,6.63,0,0,1-2.63,3"/><polygon class="cls-1" points="23.61 87.66 23.61 74.56 32.17 74.56 32.17 75.81 25.09 75.81 25.09 80.47 31.96 80.47 31.96 81.74 25.09 81.74 25.09 86.4 32.17 86.4 32.17 87.66 23.61 87.66"/><polygon class="cls-1" points="41.74 87.66 40.26 87.66 40.26 73.73 48.35 84.19 48.35 74.56 49.83 74.56 49.83 88.47 41.74 78 41.74 87.66"/><polygon class="cls-1" points="56.75 74.52 60.25 74.52 61.73 74.52 65.22 74.52 65.22 75.77 61.73 75.77 61.73 87.62 60.25 87.62 60.25 75.77 56.75 75.77 56.75 74.52"/><path class="cls-1" d="M80,81.37a4.68,4.68,0,0,1-2.85,1.09l4.43,5.2h-2l-4.22-5.19H73.63v5.19H72.15V74.56h4.61A4.81,4.81,0,0,1,80,75.66a3.69,3.69,0,0,1,0,5.71m-3-.19A2.83,2.83,0,0,0,79,80.41a2.58,2.58,0,0,0,.82-1.94,2.47,2.47,0,0,0-.78-1.88,2.9,2.9,0,0,0-2.1-.74H73.63v5.33Z"/><path class="cls-1" d="M98.24,87.66l-1.55-3.57H90.36l-1.55,3.57H87.2l6.33-14,6.31,14Zm-2.09-4.82-2.62-6-2.62,6Z"/><polygon class="cls-1" points="113.18 86.31 113.18 87.66 108.04 87.66 107.3 87.66 106.55 87.66 106.55 74.56 108.04 74.56 108.04 86.31 113.18 86.31"/></svg>